<?xml version="1.0" encoding="utf-8"?>
<!-- Generator: Adobe Illustrator 15.0.0, SVG Export Plug-In . SVG Version: 6.00 Build 0)  -->
<!DOCTYPE svg PUBLIC "-//W3C//DTD SVG 1.1//EN" "http://www.w3.org/Graphics/SVG/1.1/DTD/svg11.dtd">
<svg version="1.1" id="Capa_1" xmlns="http://www.w3.org/2000/svg" xmlns:xlink="http://www.w3.org/1999/xlink" x="0px" y="0px"
	 width="50px" height="50px" viewBox="0 0 50 50" enable-background="new 0 0 50 50" xml:space="preserve">
<defs>
	<filter id="Adobe_OpacityMaskFilter" filterUnits="userSpaceOnUse" x="3.571" y="0.28" width="42.944" height="49.371">
		<feColorMatrix  type="matrix" values="1 0 0 0 0  0 1 0 0 0  0 0 1 0 0  0 0 0 1 0"/>
	</filter>
</defs>
<mask maskUnits="userSpaceOnUse" x="3.571" y="0.28" width="42.944" height="49.371" id="SVGID_1_">
	<g filter="url(#Adobe_OpacityMaskFilter)">
		<path fill="#FFFFFF" d="M2.7-0.522h44.425v51.22H2.7V-0.522z"/>
		<path d="M296.951-211.672h1.568C298.52-211.324,296.951-211.15,296.951-211.672z M282.666-207.666
			c0.871,0,1.916,0.523,2.787,0.349s1.045-0.871,1.916-0.871c-0.348,0.697-1.219,1.045-1.916,1.394
			c-0.697,0-1.395-0.348-2.091-0.522 M341.376-205.749c-0.348,0.522-0.871,1.219-1.567,1.045
			C339.982-205.575,340.854-205.575,341.376-205.749z M293.99-203.136c0,0.697-0.175,1.219-0.523,1.568
			c-1.394,0-1.916,0.697-2.961,1.045c0.521-0.871,1.393-1.22,2.787-1.394c0-0.697-0.174-0.871-0.697-1.045
			c-0.697,0-0.871,0.523-1.568,0.349C291.377-204.355,293.293-204.181,293.99-203.136L293.99-203.136z M317.335-201.568
			c-0.175,0.174-0.349,0.522-0.697,0.174C316.812-201.568,317.16-201.917,317.335-201.568z M297.996-196.864
			c0,0.174-0.174,0.174-0.174,0.523c-0.349,0-0.522-0.174-0.522-0.523C297.648-197.038,297.822-197.038,297.996-196.864
			L297.996-196.864z M289.635-196.167c0,0.348-0.175,0.522-0.697,0.522v-0.349C289.111-196.167,289.285-196.167,289.635-196.167z
			 M294.338-193.902c-0.348,0.522-0.522,1.045-0.871,1.394c0.349,0.871,0.523,2.091-0.522,2.439
			c-0.349-0.522,0.349-0.697,0.349-1.045c-1.395-1.045,0.522-2.787-0.523-4.007c-0.521,0-0.871,0.523-1.219,0.174
			C292.248-196.516,294.338-195.47,294.338-193.902z M288.414-195.122c0,0.523-0.696,0.697-1.045,0.349
			C287.369-195.122,287.893-195.47,288.414-195.122z"/>
		<path d="M292.248-192.334c0.174,0.697-0.35,1.394,0,2.09c-0.523,0.523-0.523,1.22-1.395,1.394c0-0.697,0.523-1.045,0.697-1.568
			c-1.045-0.349-1.568,1.742-2.962,1.045c0.175-0.522,0.871-0.697,1.046-1.219C291.027-190.592,291.027-192.16,292.248-192.334z
			 M340.505-188.85c0,0.348-0.348,0.348-0.696,0.348v-0.348C339.982-189.024,340.331-189.024,340.505-188.85z M290.68-188.153
			c0.174,0,0.174,0.174,0.348,0.174c0,0.871-0.696,1.219-1.567,1.394C289.809-187.108,290.331-187.457,290.68-188.153z
			 M326.045-184.32c0,0.348-0.174,0.522-0.522,0.522C325.522-184.146,325.697-184.32,326.045-184.32z M289.46-182.927h-0.696
			C288.938-183.275,289.46-183.449,289.46-182.927z M288.414-182.927c-0.348,0.871-1.567,0.174-2.264,0.871
			C286.498-182.927,287.718-182.578,288.414-182.927z M284.582-171.777c0.522,0,0,0.697-0.174,0.348
			C284.408-171.429,284.582-171.603,284.582-171.777z M325.522-167.944c-0.174,0.174-0.696,0.174-0.696-0.174
			C325-168.292,325.522-168.292,325.522-167.944z M293.467-166.202c0,0.349-0.348,0.522-0.697,0.697
			C292.77-166.028,293.119-166.202,293.467-166.202z M327.091-166.028c0.349,0,0.696,0.174,0.696,0.348
			c0,0.523-0.174,0.697-0.696,0.697C326.742-165.157,326.916-165.68,327.091-166.028z M298.52-163.066c0.522,0,0.871,0,0.871,0.523
			c-0.523,0-0.523,0.174-1.046,0.174C298.345-162.718,298.52-162.892,298.52-163.066z M314.547-160.976
			c0,0.522-0.696,0.349-1.22,0.349C313.153-161.324,314.373-161.672,314.547-160.976z M297.648-160.627c0.348,0,0.871,0,1.045,0.174
			C298.693-160.104,297.474-160.104,297.648-160.627z M43.815-1.742c0.349,0,0.522,0.174,0.522,0.522
			c-0.348,0-0.348,0.349-0.697,0.349C43.641-1.394,43.815-1.394,43.815-1.742z M29.007-1.394c0,0.348-0.175,0.522-0.522,0.522
			C28.136-1.22,28.658-1.742,29.007-1.394z M41.725-1.22c0.349-0.174,0.349,0.697-0.174,0.523
			C41.551-0.871,41.725-0.871,41.725-1.22z M24.651,0.349c0.174,0.348-0.697,0.522-0.697,0.174
			C24.129,0.349,24.303,0.349,24.651,0.349z M33.537,0.522c0.174,0,0.174,0.174,0.348,0.174c0.174,0.523-0.348,0.523-0.697,0.523
			C33.014,0.871,33.362,0.697,33.537,0.522z M46.429,1.568c0,0.523-0.871,0.349-1.22,0.523C45.035,1.22,45.906,1.22,46.429,1.568z
			 M32.143,1.742L31.62,2.788c-0.522,0-0.349-0.523-0.696-0.697C31.098,1.917,31.795,1.917,32.143,1.742L32.143,1.742z
			 M42.596,1.917c-0.348,0.174-0.522,0.697-1.045,0.697C41.725,2.265,42.248,1.742,42.596,1.917z M36.672,2.439
			c0.35,0.174,0.697,0.349,0.697,0.697C37.021,2.962,36.672,2.962,36.672,2.439z M43.815,2.613c0.175,0.522-0.175,0.522-0.175,1.045
			c-0.348,0-0.521-0.174-0.696-0.174C43.119,2.962,43.293,2.613,43.815,2.613z M47.996,2.962c0.349,0.174,0,0.871-0.174,1.045
			C47.474,3.833,47.996,3.31,47.996,2.962z M41.377,4.704c0,0.174-0.175,0.174-0.175,0.349c-0.696-0.174-0.522-1.045-1.22-1.045
			C40.506,3.659,40.854,4.53,41.377,4.704L41.377,4.704z M12.282,4.704c0.349,0.174,0,0.697-0.349,0.697
			C11.76,4.878,12.282,5.052,12.282,4.704z M28.136,4.704c0,0.349-0.174,0.523-0.522,0.523C27.613,4.878,27.962,4.878,28.136,4.704z
			 M8.275,5.052c0.522,0,1.045,0,1.394,0.174c0,0.522-0.522,0.697-0.871,0.697C8.624,5.575,8.101,5.575,8.275,5.052z M34.059,5.052
			c0.35-0.174,0.175,0.349,0.175,0.522h-0.349C33.885,5.401,34.059,5.227,34.059,5.052z M25.522,5.227c0.349,0,0.522,0,0.522,0.348
			C25.697,5.575,25.522,5.749,25.522,5.227z M2.003,5.575c0.871,0.349,2.265-0.174,2.788,0.871C4.269,6.969,3.92,6.098,3.571,5.923
			c-0.697,0.174-1.219,0.522-1.219,1.22c-0.523,0-0.697-0.174-1.045-0.349C1.481,6.272,2.178,6.272,2.003,5.575z M27.962,6.272
			c0,0.174,0.174,0.174,0.174,0.522c-0.174,0-0.174,0.174-0.174,0.174c-0.522,0-0.697-0.174-1.046-0.349
			C26.916,6.098,27.613,6.098,27.962,6.272z M23.258,6.62c-0.174,0.174-0.349,0.174-0.697,0.174
			C22.387,6.098,23.432,6.098,23.258,6.62z M6.359,6.446c0.174,0,0.174,0.174,0.349,0.174c-0.174,0-0.174,0.349-0.523,0.174
			C6.185,6.62,6.185,6.446,6.359,6.446z M9.495,7.143c-0.348,0.174-0.522-0.174-0.871,0V6.794C8.972,6.446,9.495,6.794,9.495,7.143z
			 M21.341,6.794c0.174,0,0.349,0,0.523,0.174c0,0.174-0.174,0.348-0.523,0.174V6.794z M35.104,7.143
			c0.696-0.174,0.696,0.522,1.22,0.697c-0.349,0.871,0.348,0.697,0.348,1.394c-0.348,0-0.521,0.174-0.871,0.174
			C36.15,8.014,35.453,7.84,35.104,7.143z M11.411,7.317c0.349,0,0.522,0,0.697,0.174c-0.174,0.174-0.522,0.174-0.697,0.174V7.317z
			 M3.397,7.666c0.348,0,0.348,0.349,0.697,0.522C3.746,8.362,3.397,8.362,3.049,8.362C3.049,7.84,3.223,7.84,3.397,7.666z
			 M34.233,8.014c0.522-0.174,0.696,0.697,0.522,0.871C34.233,8.711,34.233,8.362,34.233,8.014z M38.589,9.408
			c0.522-0.174,0.522,0.348,0.696,0.522c-0.521,0.697-0.348,1.22-0.696,2.091C37.369,11.672,38.938,10.279,38.589,9.408z
			 M47.648,9.582c0.522,0,0.696,0.174,0.871,0.522c0,0.349-0.349,0.522-0.697,0.522C47.474,10.279,47.648,9.93,47.648,9.582z
			 M46.603,10.627c-0.349-0.174-0.522-0.174-1.045-0.174C45.558,9.582,46.951,9.582,46.603,10.627z M3.049,10.279
			c-0.174,0.348-0.697,0.348-1.045,0.348c0-0.174-0.174-0.174-0.174-0.348C2.003,10.104,2.7,10.104,3.049,10.279z M6.533,10.627
			h-1.22C5.313,10.279,6.533,10.104,6.533,10.627z M39.982,10.453c0.523,0,0.349,0.697,0.697,1.045
			c0.348,0.174,0.522-0.174,0.697-0.174c0,0.871-0.523,0.522-1.046,0.522C39.982,11.498,39.982,10.976,39.982,10.453z M22.909,11.15
			c0.349,0,0.349,0.174,0.349,0.522h-0.349V11.15z M9.146,12.195c0.522,0,0.174,0.871-0.349,0.697c0-0.174,0-0.174-0.174-0.174
			C8.624,12.369,9.146,12.543,9.146,12.195z M41.725,12.195c0.349-0.174,0.349,0.174,0.697,0.174
			C42.248,13.066,41.377,12.892,41.725,12.195z M43.119,13.938c-0.175,0.348-0.175,0.697-0.697,0.697
			C42.073,14.111,42.77,13.415,43.119,13.938z M41.377,14.809c0,0.348-0.523,0.348-0.871,0.348
			C40.506,14.46,41.377,14.286,41.377,14.809z M19.773,14.809c0.174,0,0.174,0.174,0.523,0.174c0,0.349-0.174,0.523-0.523,0.523
			C19.599,15.331,19.599,14.982,19.773,14.809z M47.3,15.157c0.174,0,0.349,0,0.522,0.174c0,0.174-0.174,0.349-0.522,0.174V15.157z
			 M45.558,15.505c0.522,0,0.871,0,0.696,0.522C45.732,16.028,45.383,16.028,45.558,15.505z M19.599,15.68
			c0.174,0,0.349,0.174,0.174,0.522c-0.174,0-0.174,0-0.174,0.174c-0.174,0-0.348-0.174-0.174-0.523
			C19.425,15.854,19.599,15.854,19.599,15.68z M37.718,17.77c-0.522,0-0.522-0.522-1.046-0.522
			c-1.742,0.871-3.832-0.174-5.748-0.349v-0.348c1.393-0.523,2.787,0.697,4.006,0.697C35.976,17.073,37.718,15.505,37.718,17.77z
			 M47.3,16.551c0.174,0.174,0,0.522-0.349,0.522C46.951,16.725,46.951,16.551,47.3,16.551z M48.171,17.248
			c0,0.348-0.175,0.522-0.522,0.522C47.648,17.421,47.822,17.248,48.171,17.248z M37.718,17.944c0.696,0,1.046,0.348,1.046,1.045
			l-1.046-0.523V17.944z M47.3,18.467c-0.696,0.871-1.394,1.742-2.265,2.265c-0.174,0.348,0.174,0.522,0.174,0.871
			c-1.742,0.523-3.136,1.394-5.227,0.697c1.568-0.523,2.962,0,4.182-1.045c0.697-0.522,0.871-1.394,1.568-1.742
			c0.174-0.871-0.697-0.697-0.871-1.22C45.732,18.119,46.429,18.467,47.3,18.467z M36.847,19.338
			c-0.175,0.349-0.349,0.523-0.696,0.523C35.976,19.512,36.324,19.338,36.847,19.338z M21.864,20.209
			c0,0.523-0.523,0.871-0.697,0.697C21.341,20.558,21.341,20.035,21.864,20.209z"/>
		<path d="M46.429,20.906c0.349,0.349-0.522,1.045-1.046,0.697C45.383,21.08,46.254,21.254,46.429,20.906z M25,21.429
			c0.871,0,0.871,0.697,1.22,1.219C25.349,22.997,25,22.125,25,21.429z M30.053,21.429c-0.35,0.697-1.046,0.697-1.742,1.045
			C28.484,21.777,29.355,21.254,30.053,21.429z M23.78,21.951c0.523,0,0.523,0.174,0.523,0.697
			C23.955,22.474,23.78,22.3,23.78,21.951z M3.397,22.3c0,0.348-0.349,0.522-0.523,0.348C3.049,22.3,3.049,22.125,3.397,22.3z
			 M35.627,23.345c0,0.523-0.522,0.871-1.045,0.523C34.582,23.171,35.279,22.822,35.627,23.345z M47.474,23.171
			c0.349-0.174,0.175,0.348,0.175,0.522H47.3C47.3,23.519,47.474,23.345,47.474,23.171z M20.47,24.042
			c0.349,0,0.174,0.697,0.174,1.045c-0.348,0.174-0.348,0-0.697-0.174C19.948,24.39,20.296,24.39,20.47,24.042z M33.885,24.39
			c0,0.174-0.174,0.174-0.174,0.523c-0.523,0-0.697-0.174-0.697-0.697C33.362,24.216,33.537,24.216,33.885,24.39L33.885,24.39z
			 M44.164,24.739h-0.697V24.39C43.815,24.042,44.338,24.216,44.164,24.739z M29.182,25.609c-0.175,0.349-0.349,0.523-1.046,0.523
			C27.962,25.261,28.832,25.087,29.182,25.609z M33.537,26.307c0.348,0.174,0,0.697-0.35,0.697
			C32.84,26.655,33.362,26.48,33.537,26.307z M20.993,26.48c0.174,0.175,0.522,0.175,0.522,0.697
			C20.993,27.178,20.819,26.829,20.993,26.48z M37.543,26.829c0,0.522-0.696,0.697-1.045,0.522
			C36.498,26.829,37.021,26.48,37.543,26.829z M31.969,26.829c0.348,0.175-0.174,0.697-0.174,0.871
			C31.271,27.526,31.795,27.178,31.969,26.829z M41.377,27.7c0.696,0,0.174,1.22-0.175,1.394
			C40.854,28.746,41.551,28.049,41.377,27.7z M10.714,28.397c0.174,0.349,0.522,0.696,0.174,1.045
			c-0.349-0.175-0.523-0.522-1.045-0.696C10.018,28.397,10.366,28.397,10.714,28.397z M26.916,29.268
			c-0.174,0.175-0.871,0-0.871-0.348C26.22,28.746,26.916,28.746,26.916,29.268z M19.077,29.965
			c0.349-0.174,0.349,0.871,0.174,1.045C18.728,31.01,19.077,30.139,19.077,29.965z M31.969,30.139h0.348
			c0.175,0.523-0.174,0.523-0.521,0.697C31.795,30.488,31.795,30.313,31.969,30.139z M34.233,30.139
			c0.175,0,0.175,0.175,0.349,0.175c0,0.175-0.174,0.349-0.523,0.175C34.059,30.488,34.233,30.313,34.233,30.139z M35.976,30.488
			c0,0.348-0.871,0.348-0.696-0.175C35.627,30.139,35.801,30.313,35.976,30.488z M38.938,30.662c0.348,0,0.522,0,0.522,0.348
			c-0.175,0.175-0.349,0.175-0.522,0.175V30.662z M31.098,30.836c0.348,0,0.348,0.174,0.348,0.523
			C31.098,31.359,31.098,31.185,31.098,30.836z M40.331,30.836c0.522,0,0.696,0.349,1.046,0.349c0,0.522-0.523,0.349-0.871,0.522
			C40.506,31.359,40.331,31.185,40.331,30.836z M44.338,30.836c0.349,0,0.697,0,0.523,0.349
			C44.512,31.185,44.338,31.185,44.338,30.836z M1.481,31.01c0.174,0.175,0.174,0.175,0.174,0.35c-0.174,0-0.174,0-0.174,0.174
			 M33.537,31.01c0.348,0,0.348,0.35,0.348,0.697C33.711,31.533,33.537,31.359,33.537,31.01z M36.15,31.707
			c0.174,0.523-0.697,0.697-1.046,0.523C35.279,31.533,35.627,31.533,36.15,31.707z M22.909,32.056c0,0.349,0,0.696-0.348,0.696
			C22.212,32.404,22.561,32.056,22.909,32.056z M12.631,32.404c0,0.348-0.349,0.348-0.697,0.348
			C11.934,32.404,12.282,32.404,12.631,32.404z M20.122,32.927c0.348,0.175,0.871,1.046,0.348,1.394
			C20.122,34.146,20.122,33.102,20.122,32.927z M49.216,32.927c0.349-0.175,0.175,0.349,0.175,0.696h-0.523
			C48.867,33.275,49.216,33.102,49.216,32.927z M41.725,33.449c0.523,0.174-0.348,0.871-0.871,0.871
			C40.854,33.798,41.551,33.798,41.725,33.449z M12.631,33.623c0,0.523-0.349,0.697-1.045,0.697
			C11.585,33.623,11.934,33.623,12.631,33.623z M4.791,34.32c-0.174,0.174-0.697,0.174-0.697-0.174
			C4.442,33.798,4.965,33.798,4.791,34.32z M39.809,33.973c0,0.521-0.174,0.696-0.174,1.219c0-0.522-1.046-0.697-0.697-1.219
			C39.111,33.798,39.635,33.798,39.809,33.973z M45.732,33.973c0,0.348-0.175,0.521-0.523,0.696c-0.348,0-0.348-0.349-0.697-0.522
			c-0.348,0.174-0.521,0.174-0.871,0.174C43.815,33.449,45.209,33.973,45.732,33.973z M47.996,33.973c0.349,0,0.523,0,0.523,0.348
			C48.171,34.32,47.996,34.146,47.996,33.973z M45.906,35.54c-0.174,0.522-0.697,0.696-1.045,0.871
			C44.861,35.715,45.558,35.715,45.906,35.54z M39.285,36.063c0.175,0.523-1.219,0.523-1.045,0
			C38.414,35.889,38.764,36.236,39.285,36.063z M21.167,36.063c0.348,0.349,1.394,0.349,1.394,1.045
			C21.864,37.631,21.341,36.76,21.167,36.063z M23.432,36.76c0.174,0.697-0.871,0.871-0.697,0.174
			C23.083,37.107,23.083,36.76,23.432,36.76z M48.693,37.457c0.174,0,0.522,0,0.522,0.348C48.867,37.805,48.52,37.805,48.693,37.457
			z M12.979,37.631c0.174,0,0.174,0.348,0.174,0.522c-0.174,0-0.174,0.175-0.522,0.175C12.805,38.153,12.805,37.805,12.979,37.631z
			 M20.122,38.153c0.348,0,0.697,0.175,0.697,0.522C20.296,38.676,20.122,38.502,20.122,38.153z M34.059,38.153
			c0,0.871-0.521,1.22-1.045,1.567C32.84,39.199,33.362,38.328,34.059,38.153z M42.596,38.153c0.871,0.522,1.568,0.175,2.266,0.175
			c0,0.174,0,0.174,0.174,0.174C44.861,39.896,42.944,39.199,42.596,38.153z M30.053,38.676c-0.35,0.523-0.697,0.871-1.395,1.045
			C28.484,38.502,29.355,38.153,30.053,38.676z M26.742,39.199c0.349,0,0.522,0.174,0.522,0.521h-0.522V39.199z M42.596,39.199
			c0,0.696-0.697,1.219-1.219,0.871C41.377,39.373,42.073,39.199,42.596,39.199z M38.066,39.721v0.523
			C37.718,40.244,37.718,39.547,38.066,39.721z M39.635,40.07h0.521C40.156,40.418,39.46,40.592,39.635,40.07z M35.279,40.941
			c-0.35,0.174-0.871,0-1.395,0.174C33.885,40.244,35.279,40.07,35.279,40.941z M15.941,41.289c-0.174,0-0.697-0.348-0.697-0.174
			C14.721,40.767,16.289,40.767,15.941,41.289z M29.529,40.941v0.696C28.833,41.638,29.007,40.941,29.529,40.941z M41.725,41.115
			c-0.348,0.871,1.568,2.265,0.174,2.787c-0.348-0.522,0.175-1.045-0.174-1.568c-0.522-0.174-0.697,0.175-1.045,0.175
			c-0.174-0.349,0.348-0.175,0.348-0.522c-0.521-0.697-2.264,0.697-2.438-0.697C39.635,41.115,40.854,41.463,41.725,41.115z
			 M43.467,41.115c0.523-0.174,0.697,0.697,0.349,0.871C43.467,41.986,43.467,41.638,43.467,41.115z M30.574,41.813
			c0.523,0,0.697,0.348,0.697,0.871C30.749,43.031,30.4,42.334,30.574,41.813z M26.742,41.986c0.349,0.348-0.174,1.045-0.871,1.045
			C25.697,42.334,26.568,42.509,26.742,41.986z M17.334,42.16h0.349v0.349H17.16C17.334,42.334,17.334,42.334,17.334,42.16z
			 M10.018,42.334c0.522,0-0.174,0.871-0.174,1.221C9.32,43.38,9.843,42.509,10.018,42.334z M3.049,42.334
			c0,0.35,0,0.523-0.522,0.523C2.526,42.509,2.7,42.334,3.049,42.334z M37.021,42.509c0.174,0.349,0.871,0.349,1.045,0
			c0.348,0.349,0,1.046-0.697,0.871C37.543,42.857,37.021,43.031,37.021,42.509z M27.613,43.031h0.349v0.697
			C27.439,43.729,27.613,43.38,27.613,43.031z M25.522,45.471c0.349,0,0.349,0.174,0.349,0.522
			C25.697,45.993,25.522,45.818,25.522,45.471z M27.613,46.516c0,0.697,0.522,0.697,0.522,1.394
			c-0.349-0.349-0.871-0.696-1.045-1.22C27.265,46.516,27.439,46.516,27.613,46.516z M30.4,46.864
			c0.174,0.174,0.523,0.349,0.174,0.522C30.227,47.387,30.227,47.038,30.4,46.864z M43.99,48.084c0.521,0,0.174,0.871,0.174,1.045
			C43.641,49.303,43.641,48.258,43.99,48.084z"/>
	</g>
</mask>
<g mask="url(#SVGID_1_)">
	<path fill="#222222" d="M26.568,26.307c-0.523,0.522-0.871,0.697-1.394,0.697s-1.045-0.175-1.394-0.697L3.746,1.394
		c-0.174,0-0.174-0.174-0.174-0.348S3.746,0.697,3.92,0.522c0.174-0.174,0.349-0.174,0.522-0.174l20.383,12.369L45.558,0.349
		c0.175-0.174,0.349,0,0.696,0.348c0.349,0.349,0.35,0.523,0,0.523L26.568,26.307z M26.568,48.955
		c-0.523,0.522-0.871,0.696-1.394,0.696s-1.045-0.174-1.394-0.696L3.746,24.042c-0.174,0-0.174-0.174-0.174-0.349
		s0.174-0.349,0.349-0.522c0.174-0.174,0.349-0.174,0.522-0.174l20.383,12.195l20.732-12.195c0.175-0.174,0.349,0,0.696,0.348
		c0.349,0.349,0.35,0.523,0,0.523L26.568,48.955z"/>
</g>
</svg>
